<svg xmlns="http://www.w3.org/2000/svg" width="13" height="11" viewBox="0 0 13 11">
    <g fill="none" fill-rule="evenodd">
        <g fill="#FFF">
            <g>
                <g>
                    <path d="M1.121 6.088L0.12 5.084 5.228 0.018 6.227 1.018z" transform="translate(-251 -1259) matrix(-1 0 0 1 264 1259) matrix(0 1 1 0 6 0)"/>
                    <path d="M5.217 6.088L4.217 5.084 9.324 0.018 10.323 1.018z" transform="translate(-251 -1259) matrix(-1 0 0 1 264 1259) matrix(0 1 1 0 6 0) matrix(-1 0 0 1 14.54 0)"/>
                </g>
                <g>
                    <path d="M1.121 6.088L0.12 5.084 5.228 0.018 6.227 1.018z" transform="translate(-251 -1259) matrix(-1 0 0 1 264 1259) matrix(0 1 1 0 0 0)"/>
                    <path d="M5.22 6.088L4.22 5.084 9.327 0.018 10.326 1.018z" transform="translate(-251 -1259) matrix(-1 0 0 1 264 1259) matrix(0 1 1 0 0 0) matrix(-1 0 0 1 14.546 0)"/>
                </g>
            </g>
        </g>
    </g>
</svg>
