<svg xmlns="http://www.w3.org/2000/svg" xmlns:xlink="http://www.w3.org/1999/xlink" width="602" height="210" viewBox="0 0 602 210">
    <defs>
        <path id="wc7qk5889a" d="M1.02 0.908L15.692 0.908 15.692 14.291 1.02 14.291z"/>
        <path id="1lobybw55c" d="M1.544 0.52L10.112 0.52 10.112 13.778 1.544 13.778z"/>
        <path id="fmtjgbwj6e" d="M1.544 0.52L10.112 0.52 10.112 13.778 1.544 13.778z"/>
    </defs>
    <g fill="none" fill-rule="evenodd">
        <g>
            <g transform="translate(-660 -1497) translate(661 1497)">
                <path fill="#084787" fill-rule="nonzero" d="M55.548 131.438c-.134-31.146-22.258-56.3-22.258-56.3s-21.894 25.346-21.74 56.491c.114 26.59 16.252 48.776 20.975 54.71v22.8h2.257v-22.397c4.206-5.303 20.9-28.102 20.766-55.304zM597.312 124.104c-.146-33.935-24.28-61.341-24.28-61.341s-23.885 27.615-23.718 61.55c.125 28.97 17.73 53.143 22.883 59.61v24.84h2.461V184.36c4.569-5.777 22.78-30.618 22.654-60.256z"/>
                <path fill="#014D9A" fill-rule="nonzero" d="M106.548 156.743c0-18.561-15.22-33.604-34-33.604s-34 15.043-34 33.604c0 18.123 14.509 32.88 32.692 33.565v16.83h2.636v-16.83c18.164-.684 32.672-15.442 32.672-33.565z"/>
                <path fill="#003C7D" fill-rule="nonzero" d="M155.734 143.139h-13.39c-2.08 0-3.796 1.695-3.796 3.752v37.429c0 2.057 1.715 3.752 3.796 3.752h6.05v19.067h1.31v-19.067h6.049c2.08 0 3.795-1.695 3.795-3.752V146.89c-.019-2.076-1.714-3.752-3.814-3.752z"/>
                <g fill-rule="nonzero">
                    <path fill="#00458C" d="M36.763 37.002C36.638 17.016 18.555.884 18.555.884S.64 17.163.765 37.15C.867 54.202 14.06 68.449 17.93 72.26v14.623h1.852V72.513c3.413-3.415 17.084-18.038 16.98-35.51z" opacity=".687" transform="translate(463.55 122.879)"/>
                    <path fill="#034A92" d="M43.767 37.884H29.74c-2.18 0-3.976 1.881-3.976 4.164v17.519c0 2.282 1.796 4.163 3.976 4.163h6.337v21.154h1.373V63.73h6.337c2.18 0 3.977-1.88 3.977-4.163v-17.52c-.02-2.303-1.817-4.163-3.997-4.163z" transform="translate(463.55 122.879)"/>
                    <path fill="#0452A0" d="M60.586 21.884H45.92c-2.278 0-4.156 1.87-4.156 4.137v33.705c0 2.268 1.878 4.137 4.156 4.137h6.626v21.021h1.435v-21.02h6.626c2.279 0 4.157-1.87 4.157-4.138V26.021c-.022-2.289-1.9-4.137-4.178-4.137z" transform="translate(463.55 122.879)"/>
                </g>
                <path fill="#205795" fill-rule="nonzero" stroke="#5D8DC1" stroke-width=".5" d="M446.064 208.497h-290.03V10.653c0-5.445 4.423-9.867 9.868-9.867h270.312c5.445 0 9.867 4.422 9.867 9.867v197.844h-.017z"/>
                <path fill="#00294D" fill-rule="nonzero" d="M159 30H442.266V207.815H159z"/>
                <circle cx="168.5" cy="15.5" r="4.5" fill="#8BC3FF" fill-rule="nonzero" opacity=".722"/>
                <circle cx="185.806" cy="15.5" r="4.5" fill="#8BC3FF" fill-rule="nonzero" opacity=".722"/>
                <circle cx="203.113" cy="15.5" r="4.5" fill="#8BC3FF" fill-rule="nonzero" opacity=".722"/>
                <path fill="#96C3FC" fill-rule="nonzero" d="M310.04 107.954L318.104 107.954"/>
                <path fill="#5291CE" fill-rule="nonzero" d="M324.364 114.11h-8.67V91.636c0-8.081-6.573-14.653-14.654-14.653-8.08 0-14.653 6.572-14.653 14.653v22.474h-8.67V91.636c0-12.85 10.456-23.324 23.323-23.324 12.868 0 23.324 10.457 23.324 23.324v22.474z"/>
                <path fill="#83BAFF" fill-rule="nonzero" d="M324.954 164.121h-47.792c-4.249 0-7.734-3.485-7.734-7.734V112.22c0-4.249 3.485-7.734 7.734-7.734h47.792c4.248 0 7.734 3.485 7.734 7.734v44.167c0 4.249-3.486 7.734-7.734 7.734z"/>
                <path fill="#00294D" fill-rule="nonzero" d="M308.792 132.092c0-4.265-3.468-7.734-7.734-7.734s-7.734 3.469-7.734 7.734c0 2.966 1.664 5.532 4.11 6.833v5.15c0 2.012 1.63 3.624 3.624 3.624 2.011 0 3.624-1.63 3.624-3.624v-5.15c2.445-1.3 4.11-3.867 4.11-6.833z"/>
                <path fill="#001C2D" fill-rule="nonzero" d="M298.977 144.075v-5.15c-2.445-1.3-4.11-3.867-4.11-6.833 0-3.97 3-7.23 6.85-7.682-.226-.017-.434-.052-.66-.052-4.265 0-7.733 3.469-7.733 7.734 0 2.966 1.664 5.532 4.11 6.833v5.15c0 2.012 1.63 3.624 3.624 3.624.26 0 .503-.034.745-.104-1.63-.346-2.826-1.786-2.826-3.52z"/>
                <g>
                    <g>
                        <path fill="#025FD0" fill-rule="nonzero" d="M59.954 19.283l2.428 1.162s2.48-.381 4.508 3.884c0 0 2.307-1.751 1.769 5.047-1.335 17.167-.19 25.04-.19 25.04s-2.654-3.902-3.504-9.034c-1.7-10.041-3.607-24.451-5.011-26.099z" transform="translate(91.173 88.058)"/>
                        <path fill="#005BB5" fill-rule="nonzero" d="M66.04 28.526L68.59 30.659 68.451 32.896 66.214 30.954z" transform="translate(91.173 88.058)"/>
                        <path fill="#EDB7B7" fill-rule="nonzero" d="M103.012 20.116c-.295-.746-1.145-1.11-1.89-.815L97.461 21l-6.433 1.96 1.422 3.572 6.19-3.035 3.556-1.474c.745-.312 1.11-1.162.815-1.907z" transform="translate(91.173 88.058)"/>
                        <path fill="#EDB7B7" fill-rule="nonzero" d="M103.722 20.986l-2.29.608c-.246.077-.852-.82-1.004-1.317-.151-.497.398-.898.644-.974l5.361-2.578c.246-.076 1.118-.343.947.249-.01.042-.08.304-.39.514-.824.559-2.517 1.425-3.095 1.91-.292.254-.597.578-.597.999 0 .42.424.59.424.59z" transform="translate(91.173 88.058)"/>
                        <path fill="#EDB7B7" fill-rule="nonzero" d="M105.477 21.876h-1.31l-3.211.562c-.296 0-.38-.958-.38-1.333s.253-.687.549-.666l4.69.458c.296 0 .76.333.76.708 0 .375-.802.27-1.098.27z" transform="translate(91.173 88.058)"/>
                        <path fill="#025FD0" fill-rule="nonzero" d="M96.37 25.855c.538-3-.884-5.323-1.335-5.132-5.827 2.653-13.752 2.913-15.156 2.913-1.405 0-6.989-.694-8.047-1.405-1.23-.815-4.994-4.751-8.948-3.607-2.254.66-.069 6.867 1.301 8.914 1.37 2.028 2.098 3.277 5.029 3.728 2.618.416 10.318-.208 12.07-.642 0 .018 5.34-1.162 15.086-4.769z" transform="translate(91.173 88.058)"/>
                        <path fill="#E5E5E5" fill-rule="nonzero" d="M94.428 20.22L96.457 26.618 98.121 26.202 96.006 19.977z" transform="translate(91.173 88.058)"/>
                        <path fill="#EDB7B7" fill-rule="nonzero" d="M73.41 83.41s.85-4.82-5.063-8.687l-4.405 7.23s4.197 1.718 3.642 3.504c0 0-2.307 6.607 4.387 17.618 0 0 3.971 7.318 5.515 10.838 0 0 4.422.815 3.884-3.156.017.018-7.231-19.196-7.96-27.347z" transform="translate(91.173 88.058)"/>
                        <path fill="#004EAE" fill-rule="nonzero" d="M54.44 65.289s9.606 18.295 9.866 18.121c.104-.069 7.873 26.966 9.347 25.804.989-.78 3.226-2.012 7.075-3.78-.676-6.972-4.89-22.544-5.844-26.03-.121-.468-.33-.884-.624-1.283-2.098-2.774-9.485-21.693-12.433-27.034l-7.388 14.202z" transform="translate(91.173 88.058)"/>
                        <path fill="#FBBEBE" fill-rule="nonzero" d="M12.908 85.197s-3.26 1.56-9.52 2.063l1.924 4.942s5.272-1.734 13.04-1.82c.018-.018 9.486-2.064-5.444-5.185z" transform="translate(91.173 88.058)"/>
                        <path fill="#025FD0" fill-rule="nonzero" d="M45.595 44.636l-9.572 34.89-25.873 5.619.59 7.075 30.988-2.706c1.578-.138 2.983-1.023 3.78-2.393l16.284-31.005s2.532-4.232 1.127-8.48l-17.324-3z" transform="translate(91.173 88.058)"/>
                        <path fill="#D9DEE2" fill-rule="nonzero" d="M64.74 22.838s-.728-.07.867-.07l.52.07c1.405 4.908.434 9.382-.225 14.463l-1.3 15.346s-2.689 4.006-2.914.018c-.416-8.705-.538-23.515 3.052-29.827z" transform="translate(91.173 88.058)"/>
                        <g>
                            <path fill="#FBBEBE" d="M14.757 5.098c.815 3.295-.78 10.353-3.381 10.596-.85 0-2.359-.208-3.833-1.7L6.59 21.26.156 19.613 5.012 9.85c-.867-1.77-1.249-3.763-.607-5.705 1.89-5.636 9.537-2.342 10.352.953z" transform="translate(91.173 88.058) translate(57.96) translate(0 3.468)"/>
                            <g fill-rule="nonzero">
                                <path fill="#2F2E41" d="M4.647 4.457S5.705.312 9.364 1.82c0 0 .971.433 2.705 1.855.243.208.503.434.746.66.676.64 3.035 2.635 4.82.832 0 0 .105 2.48-2.6 4.439 0 0-6.104 4.214-10.492-.78 0 0-1.387 1.872-1.248 4.82 0 0-.26-.052-.78-.277-.07-.382-.209-1.11-.313-2.012-1.907-3.45-.468-7.439 2.445-6.901z" transform="translate(91.173 88.058) translate(57.96) translate(1.734)"/>
                                <path fill="#2F2E41" d="M4.838 5.827s.226-2.74-1.56-2.844c0-.018 1.682.85 1.56 2.844z" transform="translate(91.173 88.058) translate(57.96) translate(1.734)"/>
                                <path fill="#2F2E41" d="M5.202 4.873S3.07 3.087 1.994 4.526c0 0 1.058-.884 3.208.347z" transform="translate(91.173 88.058) translate(57.96) translate(1.734)"/>
                                <path fill="#343449" d="M4.647 4.457s2.844-4.318 6.92.78c0 0 2.618 2.93 6.034-.052 0 0-3.537 5.376-7.751.173 0 0-2.012-3.086-5.203-.901zM6.728 7.075s2.81 3.937 7.214 1.266c0-.017-3 1.89-7.214-1.266z" transform="translate(91.173 88.058) translate(57.96) translate(1.734)"/>
                                <path fill="#343449" d="M4.647 4.457s-3.537-.14-1.526 6.225c0-.017-1.49-3.642 1.526-6.225z" transform="translate(91.173 88.058) translate(57.96) translate(1.734)"/>
                                <path fill="#223" d="M4.509 5.757S2.445 9.121 7.75 10.925c0 .017-4.3-1.44-3.242-5.168z" transform="translate(91.173 88.058) translate(57.96) translate(1.734)"/>
                            </g>
                            <path fill="#FBBEBE" fill-rule="nonzero" d="M14.098 11.913s1.838 2.307 1.162 3.122c0 0-.503.815-1.543-.07-.815-.693.381-3.052.381-3.052z" transform="translate(91.173 88.058) translate(57.96)"/>
                            <path fill="#EAB0B0" fill-rule="nonzero" d="M7.56 17.462l-.19 1.474s-1.44-1.456-1.717-3.78c0-.017.85 1.422 1.908 2.306zM5.324 11.133s.07 2.029 1.04 1.803c0 0-1.058 1.249-1.04-1.803z" transform="translate(91.173 88.058) translate(57.96)"/>
                            <path fill="#2F2E41" fill-rule="nonzero" d="M5.324 10.994s.624-1.907 2.133-1.023c0 0-.677-.381-1.44-1.769-.763-1.387-.693 2.792-.693 2.792z" transform="translate(91.173 88.058) translate(57.96)"/>
                        </g>
                        <path fill="#0978FF" fill-rule="nonzero" d="M60.734 17.81s2.376 3.467 4.89 4.941l.07 1.249s-2.81 18.867.45 31.543c-16.265 1.943-23.722-2.34-25.595-4.179-.85-16.092 10.509-34.3 20.185-33.555z" transform="translate(91.173 88.058)"/>
                        <path fill="#C2C8CC" fill-rule="nonzero" d="M66.04 22.769L65.191 19.942 64.948 21.763 65.971 22.838z" transform="translate(91.173 88.058)"/>
                        <path fill="#F2F2F2" fill-rule="nonzero" d="M65.191 19.942L66.04 22.769 67.254 23.497 65.26 19.387z" transform="translate(91.173 88.058)"/>
                        <path fill="#025FD0" fill-rule="nonzero" d="M58.601 17.514L63.786 25.11 65.902 22.977 64.168 24.173z" transform="translate(91.173 88.058)"/>
                        <path fill="#0978FF" fill-rule="nonzero" d="M60.734 17.81s-4.214-2.203-12 5.01L36.51 30.556s-3.989 1.925-1.925 6.537l9.555 13.977 3.815-3.59L42.75 37.04s3.954-1.976 9.347-5.687l8.636-13.544z" transform="translate(91.173 88.058)"/>
                        <path fill="#F2F2F2" fill-rule="nonzero" d="M60.543 17.289L58.428 17.289 64.168 24.173 66.127 22.838z" transform="translate(91.173 88.058)"/>
                        <path fill="#025FD0" fill-rule="nonzero" d="M44.399 36.139s5.774-2.757 10.352-5.428c0 0-10.994 6.52-6.919 16.543.018-.104-4.092-7.508-4.318-8.688.52-.988.729-2.08.885-2.427z" opacity=".58" transform="translate(91.173 88.058)"/>
                        <path fill="#F2F2F2" fill-rule="nonzero" d="M43.012 51.434L48.283 46.89 49.723 48.434 44.364 52.63z" transform="translate(91.173 88.058)"/>
                        <path fill="#DDD" fill-rule="nonzero" d="M76.514 116.185c-.208 1.023-.329 2.15 1.145 1.751l12.71-3.346s4.267-1.162 5.047-3.052c0 0 .746-1.284-.676-1.648l-4.44.52-7.595-.71s-1.162-1.96-1.647.329c0 0-2.116 2.965-5.376 2.774-.017.018-.104 2.116.832 3.382zM3.231 85.925c-.832-.503-1.769-.92-1.855.485l-.85 12.087s-.243 4.075 1.162 5.306c0 0 .902 1.024 1.63-.104l.867-4.023 2.879-6.433s2.063-.451.19-1.544c0 0-1.942-2.722-.832-5.514 0 .017-1.804-.676-3.19-.26z" transform="translate(91.173 88.058)"/>
                    </g>
                    <g stroke="#FFBC0A" stroke-linecap="round" stroke-width="3.5" transform="translate(91.173 88.058) translate(52.023 34.682)">
                        <path d="M17.156 17.41L52.827.312M40.272 9.399L46.41 6.451M45.092 4.023L49.896 12.832M39.092 7.092L42.023 12.832"/>
                        <circle cx="9.613" cy="22.578" r="8.913"/>
                    </g>
                </g>
                <g fill-rule="nonzero">
                    <path fill="#235CA2" d="M5.666 10.143c-3.598 3.865-3.972 9.753-3.972 9.753s5.45-.382 9.027-4.247c3.598-3.865 3.973-9.753 3.973-9.753s-5.43.382-9.028 4.247z" transform="translate(539.306 189.104)"/>
                    <path fill="#356CAF" d="M8.314 11.363c-1.322 5.244-6.005 8.533-6.005 8.533s-2.558-5.2-1.236-10.467C2.396 4.163 7.078.896 7.078.896s2.559 5.222 1.236 10.467z" transform="translate(539.306 189.104)"/>
                </g>
                <g fill-rule="nonzero">
                    <path fill="#235CA2" d="M5.666 10.143c-3.598 3.865-3.972 9.753-3.972 9.753s5.45-.382 9.027-4.247c3.598-3.865 3.973-9.753 3.973-9.753s-5.43.382-9.028 4.247z" transform="matrix(-1 0 0 1 128 189.104)"/>
                    <path fill="#356CAF" d="M8.314 11.363c-1.322 5.244-6.005 8.533-6.005 8.533s-2.558-5.2-1.236-10.467C2.396 4.163 7.078.896 7.078.896s2.559 5.222 1.236 10.467z" transform="matrix(-1 0 0 1 128 189.104)"/>
                </g>
                <g fill-rule="nonzero">
                    <path fill="#235CA2" d="M7.744 10.396C8.992 15.638 13.676 19 13.676 19s2.648-5.132 1.4-10.396C13.83 3.362 9.146 0 9.146 0S6.496 5.154 7.743 10.396z" transform="translate(419 188)"/>
                    <path fill="#356CAF" d="M9.521 9.35c3.593 3.865 3.89 9.65 3.89 9.65s-5.518-.486-9.111-4.35C.706 10.785.41 5 .41 5s5.517.508 9.111 4.35z" transform="translate(419 188)"/>
                </g>
                <path fill="#FBBEBE" fill-rule="nonzero" d="M143.197 144.909c1.005-.746 1.005-1.995.45-2.792l-3.26-3.729-.605-1.02-2.817 2.205.838.966 2.567 3.936c.572.815 1.855 1.145 2.827.434z"/>
                <path stroke="#3377CD" stroke-linecap="round" stroke-linejoin="round" stroke-width="3" d="M598.821 208L0.85 208"/>
                <g>
                    <path fill="#C4A18A" d="M13.11 41.954l-6 1.908-2.066-.54s-.515-.17-1.28-.082c-.066.009-.134.02-.199.036-.413.092-1.81.45-.529.768l1.096.328c.2.06.275.305.143.466-.293.357-.846.882-1.657 1.05l-1.977.407c-.197.042-.879.071-.37.82 0 0 1.224 1.476 3.284 1.144 0 0 1.954-.17 4.078-2.125l6.195-1.129-.718-3.051zM14.55 21.119L8.637 19.86l-1.462-1.431s-.351-.388-1.03-.677c-.06-.026-.12-.047-.182-.065-.39-.121-1.722-.484-.806.387l.727.536c.213.294.5.535-.07.716-.425.133-1.127.332-1.882.088 0 0-1.663-.54-1.842-.601-.291-.095-.774.024-.707.89 0 0-.003 1.474 1.712 2.012 0 0 2.201.907 4.9.287l5.702 2.003.851-2.886z" transform="translate(348 97)"/>
                    <path fill="#DB4642" d="M42.478 30.678s-16.859-.99-32.09-6.66l.706-4.529 15.336 3.496 11.968-2.493s8.429 1.462 4.08 10.186" transform="translate(348 97)"/>
                    <path fill="#C4A18A" d="M16.287 66.162l-3.975 7.456c-.27.506-.419 1.066-.438 1.638l-.93 31.038 3.331-.28 4.114-28.533 7.03-10.936-9.132-.383zM34.525 72.032l2.442 5.737c.465 1.095 1.08 2.12 1.825 3.046l17.872 22.246 2.1-3.122-13.668-22.403-4.46-9.765-6.111 4.261z" transform="translate(348 97)"/>
                    <g transform="translate(348 97) translate(25.833 .814)">
                        <mask id="tn1r3ts0ab" fill="#fff">
                            <use xlink:href="#wc7qk5889a"/>
                        </mask>
                        <path fill="#191847" d="M15.691 6.952c.012-.623-.062-1.246-.267-1.835-.35-1.006-1.059-1.867-1.905-2.505C11.935 1.426 9.887.907 7.93.907 3.756.907.181 3.82 1.193 7.6c.216.685.498.975.705 1.545.625 2.841 3.155 4.968 6.184 4.968.073 0 .143-.008.216-.01.296.117.616.188.974.188.667 0 1.304-.064 1.883-.259 2.337-.778 3.768-3.036 4.304-5.338.019-.081.036-.162.053-.243.102-.49.169-.994.18-1.499" mask="url(#tn1r3ts0ab)"/>
                    </g>
                    <path fill="#CEAC91" d="M38.536 7.91c.138 1.968-.687 3.721-1.908 5.154l2.187 10.2H32.46l1.076-7.617c-1.42 1.178-2.798 1.79-4.19 1.33-2.721-1.276-2.166-7.767-.632-10.626 1.535-2.86 9.424-4.108 9.822 1.558" transform="translate(348 97)"/>
                    <path fill="#CEAC91" d="M27.75 9.69s-1.794 2.26-1.142 3.052c0 0 .49.805 1.516-.069.802-.683-.374-2.982-.374-2.982" transform="translate(348 97)"/>
                    <path fill="#C9A68F" d="M33.536 15.648s.75-.29 1.92-1.437c0 0-.897 2.086-2.111 2.796l.19-1.36z" transform="translate(348 97)"/>
                    <path fill="#191847" d="M37.5 4.15s-6.688-1.603-9.4 1.704c0 0-.665 1.929 5.229 4.224.13-.539.485-.931.909-.931.534 0 .966.618.966 1.377 0 .126-.093.8-.229 1.046 0 0 1.416.394 1.652 1.495 0 0 1.222-.63 2.189-2.725 0 0 1.016-4.071-1.316-6.19" transform="translate(348 97)"/>
                    <path fill="#F55547" d="M32.36 21.001l5.823-1.049s3.627 1.909 3.532 7.828l-6.109 15.665s4.2 15.355 16.13 28.241c0 0-10.786 4.581-17.371 3.15l-.097-1.624s-10.69-.38-20.616-4.295l10.88-27.003.645-7.247s-.262-2.88 2.316-6.315l4.867-7.35z" transform="translate(348 97)"/>
                    <path fill="#DB4642" d="M34.269 73.213S31.596 56.509 31.024 48.3c0 0 2.978 19.51 9.171 26.601 0 0-2.68.698-5.83-.067l-.096-1.622z" transform="translate(348 97)"/>
                    <path fill="#191847" d="M51.513 43.412c1.352-.14 2.68-.682 3.746-1.635 1.729-1.546 2.507-4.009 2.15-6.217-.46-2.855-2.882-3.925-4.928-5.542-2.432-1.924-3.24-5.261-3.513-8.408-.138-1.598-.18-3.23-.662-4.746-.639-2.008-2.037-3.663-3.725-4.859-.8-.566-1.662-1.055-2.594-1.383-3.255-1.143-2.605 1.506-2.605 1.506 2.996 3.65 2.075 9.462 1.352 13.862-.763 4.65.881 9.326 3.46 13.116.771 1.135 1.64 2.222 2.738 3.043 1.326.99 2.895 1.437 4.581 1.263" transform="translate(348 97)"/>
                    <path fill="#FF4133" d="M39.658 13.742c-.1 0-.198-.034-.28-.103-.182-.153-.2-.427-.048-.606 1.065-1.247 1.61-2.87 1.616-2.885.077-.227.329-.343.542-.274.228.074.35.317.276.543-.024.074-.603 1.796-1.78 3.174-.084.101-.206.151-.326.151" transform="translate(348 97)"/>
                    <path fill="#222256" d="M42.32 12.025s5.497 3.553 4.385 10.912c-1.113 7.36 6.164 10.633 6.164 10.633s-7.92-2.394-6.97-10.745c0 0 1.192-6.96-3.579-10.8M43.259 30.75s.477 6.836 6.644 10.04c0 0-4.443-3.219-6.644-10.04" transform="translate(348 97)"/>
                    <path fill="#DDD" d="M15.743 108.155c.384.744.706 1.564-.503 1.58l-10.409.127s-3.508.007-4.503-1.264c0 0-.84-.82.17-1.399L4 106.646l5.66-2.147s.48-1.75 1.328-.09c0 0 1.502 1.652 3.95.834 0 0 1.425 1.093.805 2.912" transform="translate(348 97)"/>
                    <g transform="translate(348 97) translate(51.667 97.259)">
                        <mask id="pby9ieqgod" fill="#fff">
                            <use xlink:href="#1lobybw55c"/>
                        </mask>
                        <path fill="#DDD" d="M8.915 1.313c.754.02 1.545.117 1.035 1.083L5.536 10.71s-1.519 2.784-2.959 3.026c0 0-1.014.311-1.033-.744l1.08-3.018.75-5.421s-1.179-1.139.507-1.094c0 0 1.96-.474 2.373-2.771 0 0 1.488-.656 2.661.625" mask="url(#pby9ieqgod)"/>
                    </g>
                    <g transform="translate(348 97) translate(51.667 97.259)">
                        <mask id="k0hzfw0kpf" fill="#fff">
                            <use xlink:href="#fmtjgbwj6e"/>
                        </mask>
                        <path fill="#DDD" d="M8.915 1.313c.754.02 1.545.117 1.035 1.083L5.536 10.71s-1.519 2.784-2.959 3.026c0 0-1.014.311-1.033-.744l1.08-3.018.75-5.421s-1.179-1.139.507-1.094c0 0 1.96-.474 2.373-2.771 0 0 1.488-.656 2.661.625" mask="url(#k0hzfw0kpf)"/>
                    </g>
                    <path fill="#F55547" d="M25.38 34.624s-10.853 6.47-15.54 7.61l-.003 4.55s10.716-.62 14.765-3.785c4.049-3.163.778-8.375.778-8.375" transform="translate(348 97)"/>
                </g>
            </g>
        </g>
    </g>
</svg>
