<svg xmlns="http://www.w3.org/2000/svg" width="72" height="34" viewBox="0 0 72 34">
    <g fill="none" fill-rule="evenodd" opacity=".366">
        <g fill="#FFF">
            <g>
                <path d="M55.725 4.112c.804 0 1.136.332.878 1.483-.211.91-1.255 5.272-1.255 5.272H43.372c-2.64 0-4.588 1.288-4.588 2.767 0 1.48 1.793 2.079 3.544 2.079h4.914c6.404 0 8.675 2.41 8.46 6.132-.379 6.63-4.738 12.152-15.883 12.152H26.666c-.4 0-.84-.332-.646-1.211l.636-2.8.123-.543.598-2.631c-.01-.066-.05-.018-.05-.018-.065.148-.124.265-.217.444C25.432 30.488 21.286 34 18.194 34H5.976C1.364 34-.706 30.193.214 26.023l4.88-20.966c.179-.738.402-.916.999-.916h8.899L9.844 26.51h26.993c5.088-.005 6.08-.118 7.205-1.022.51-.41.982-1.25.968-1.97-.028-1.308-1.073-1.584-2.957-1.584l-1.745-.01c-8.53 0-11.836-3.284-11.836-7.559 0-4.27 3.858-10.253 12.45-10.253zM72 0L59.24 7.182s.514-2.354.67-3.055c.16-.742-.056-1.302-1.015-1.515L47.19 0H72z" transform="translate(-40 -36) translate(40 36)"/>
            </g>
        </g>
    </g>
</svg>
